<?xml version="1.0" encoding="utf-8"?>
<!-- Generator: Adobe Illustrator 27.0.0, SVG Export Plug-In . SVG Version: 6.00 Build 0)  -->
<svg version="1.1" id="Layer_1" xmlns="http://www.w3.org/2000/svg" xmlns:xlink="http://www.w3.org/1999/xlink" x="0px" y="0px"
	 viewBox="0 0 145.5 117.6" style="enable-background:new 0 0 145.5 117.6;" xml:space="preserve">
<style type="text/css">
	.st0{fill:url(#SVGID_1_);}
</style>
<path d="M-2128.5-217.2h-6l2-7.8h3.9v-11.2l9,0.1v11.1h6l-2,7.8h-4v9.6c0,2.6,1.6,3.9,4.8,3.9c1,0,1.8-0.1,2.4-0.4l-2.6,9
	c-0.5,0.1-0.9,0.1-1.4,0.1c-2.7,0-4.9-0.4-6.7-1.3c-1.8-0.9-3.2-2.2-4.1-3.9c-0.9-1.7-1.4-4-1.4-6.7v-10.3H-2128.5z"/>
<path d="M-2087.6-196.4c-1.7,0.7-3.3,1.1-4.8,1.2c-8.9,0.9-13.4-3.3-13.4-12.8v-16.9h9.1v16.3c0,1.7,0.4,3,1.2,3.9s1.9,1.3,3.3,1.3
	c1.4,0,2.5-0.4,3.3-1.3c0.8-0.9,1.2-2.2,1.2-3.9v-16.3h9.1v32.4c0,3.5-1.2,6.5-3.7,9.1c-1.1,1.1-2.7,2.1-4.7,2.8
	c-1.8,0.6-3.6,1-5.4,1h-1.5c-4-0.1-7.3-1.3-9.7-3.7c-1.6-1.6-2.6-3.1-2.9-4.4l8.2-4.8c0.1,1.4,0.6,2.6,1.7,3.6c1,1,2.3,1.5,3.7,1.5
	c1.1,0,2.1-0.3,3.1-1c0.9-0.6,1.5-1.4,2-2.4v-0.1l0.1-0.1l0.1-0.2l0.1-0.2c0.1-0.2,0.1-0.4,0.1-0.7v-0.1v-0.3l0,0v-3.9H-2087.6z"/>
<path d="M-2068.2-205c1.8,1.8,4,2.7,6.6,2.7c2.7,0,4-0.8,4-2.4c0-0.8-0.7-1.4-2.2-1.8c-1.1-0.2-2.7-0.7-5-1.3
	c-1.9-0.5-3.4-1.4-4.7-2.7s-1.9-3.3-1.9-6c0-2.1,0.5-3.8,1.6-5.3c1.1-1.4,2.4-2.5,4.1-3.2c1.7-0.7,3.6-1,5.6-1
	c1.2,0,2.3,0.2,3.5,0.5c1.3,0.4,2.4,0.9,3.5,1.5s2.1,1.3,2.9,2.1l-5,5c-1.5-1.1-3-1.6-4.8-1.6c-2.1,0-3.1,0.6-3.1,1.7
	c0,1,0.8,1.8,2.3,2.2c1.7,0.5,3.4,0.9,5.1,1.3c1.9,0.5,3.4,1.3,4.7,2.6s1.9,3.3,1.9,6.1c0,2.1-0.5,3.8-1.6,5.3s-2.6,2.6-4.4,3.4
	c-1.8,0.8-3.7,1.2-5.7,1.2c-1.6,0-3.1-0.1-4.4-0.4c-1.3-0.2-2.6-0.7-3.7-1.2c-1.2-0.6-2.4-1.4-3.7-2.3L-2068.2-205z"/>
<path d="M-2030.9-217.8c-2.3,0.1-3.5,1.7-3.5,4.8v17.1h-9.1V-213c0-8.2,4.2-12.6,12.5-13h0.5c8.3,0.4,12.5,4.7,12.5,13v17.1h-9.1
	V-213c0-3.1-1.2-4.7-3.5-4.8H-2030.9z"/>
<path d="M-2011.4-202.9c0.5-0.8,1.1-1.4,1.9-1.8c0.8-0.5,1.6-0.7,2.5-0.7s1.7,0.2,2.5,0.7s1.4,1.1,1.9,1.9c0.5,0.8,0.7,1.6,0.7,2.5
	c0,1.5-0.5,2.8-1.5,3.7c-1,1-2.2,1.5-3.6,1.5c-0.9,0-1.8-0.2-2.6-0.7c-0.8-0.5-1.4-1.1-1.9-1.9c-0.5-0.8-0.7-1.7-0.7-2.7
	C-2012.1-201.3-2011.9-202.1-2011.4-202.9z"/>
<path d="M-1996.1-195.9l10.6-15.1l-9.9-13.9l9.9-0.1l5.3,8l5.6-8h9.8l-10.5,14l11,14.9l-10.8,0.1l-5.5-8.4l-6,8.4L-1996.1-195.9z"/>
<path d="M-1946-203.2h0.5c2.3-0.1,3.5-1.7,3.5-4.8v-16.9h9.1v16.9c0,8.2-4.2,12.5-12.5,13h-0.5c-8.3-0.5-12.5-4.8-12.5-13v-16.9h9.1
	v16.9C-1949.4-204.9-1948.3-203.3-1946-203.2z"/>
<g>
	<linearGradient id="SVGID_1_" gradientUnits="userSpaceOnUse" x1="72.7546" y1="10.1026" x2="72.7546" y2="107.6535">
		<stop  offset="0" style="stop-color:#FFFFFF;stop-opacity:0.3"/>
		<stop  offset="1" style="stop-color:#FFFFFF"/>
	</linearGradient>
	<path class="st0" d="M137.5,49.5c-0.4,6.9-9.6,22-24.4,35.5c-16.6,15.2-34.9,23.4-49.9,22.6c-10.7-0.6-19-17.9-27.8-36.1
		C28,56.1,19.7,39.1,8,27.1L45,38c-2.1,10.8-2.4,21.4-0.1,27.3c3.4,8.7,15.8,13.2,25.7,15.5c9.1,2.1,21.9,3.3,28.2,1.1
		c4.8-1.7,8.4-6.8,10.3-14.7c2.1-8.9,1.9-21-2.8-26.1c-6.9-7.4-22.6-4.6-40.8-1.4l0.8,4.6l0.8,4.6c11.5-2,29-5.1,32.4-1.4
		c1.3,1.4,2.5,9.3,0.5,17.5c-1.2,5-3,7.6-4.4,8.1c-3.2,1.1-12.8,0.9-22.9-1.4c-12.4-2.8-18-7-19.1-9.8c-1.4-3.6-1.2-12,0.5-21.2
		c1.5-8.1,4.1-16.7,7.8-23c2.6-4.5,5.4-7.2,7.8-7.5C78.5,8.8,113,22.7,130,38.3C137,44.7,137.6,48.2,137.5,49.5z"/>
</g>
</svg>
