<?xml version="1.0" encoding="utf-8"?>
<!-- Generator: Adobe Illustrator 27.0.0, SVG Export Plug-In . SVG Version: 6.00 Build 0)  -->
<svg version="1.1" id="Layer_1" xmlns="http://www.w3.org/2000/svg" xmlns:xlink="http://www.w3.org/1999/xlink" x="0px" y="0px"
	 viewBox="0 0 231.4 68.1" style="enable-background:new 0 0 231.4 68.1;" xml:space="preserve">
<style type="text/css">
	.st0{fill:#FFFFFF;}
</style>
<g>
	<path class="st0" d="M20.9,24.8h-6l2-7.8h3.9V5.8l9,0.1V17h6l-2,7.8h-4v9.6c0,2.6,1.6,3.9,4.8,3.9c1,0,1.8-0.1,2.4-0.4l-2.6,9
		C34,46.9,33.6,47,33.1,47c-2.7,0-4.9-0.4-6.7-1.3c-1.8-0.9-3.2-2.2-4.1-3.9c-0.9-1.7-1.4-4-1.4-6.7V24.8z"/>
	<path class="st0" d="M61.8,45.5c-1.7,0.7-3.3,1.1-4.8,1.2c-8.9,0.9-13.4-3.3-13.4-12.8V17.1h9.1v16.3c0,1.7,0.4,3,1.2,3.9
		c0.8,0.9,1.9,1.3,3.3,1.3c1.4,0,2.5-0.4,3.3-1.3c0.8-0.9,1.2-2.2,1.2-3.9V17.1l9.1,0v32.4c0,3.5-1.2,6.5-3.7,9.1
		c-1.1,1.1-2.7,2.1-4.7,2.8c-1.8,0.6-3.6,1-5.4,1h-1.5c-4-0.1-7.3-1.3-9.7-3.7c-1.6-1.6-2.6-3.1-2.9-4.4l8.2-4.8
		c0.1,1.4,0.6,2.6,1.7,3.6c1,1,2.3,1.5,3.7,1.5c1.1,0,2.1-0.3,3.1-1c0.9-0.6,1.5-1.4,2-2.4l0-0.1l0.1-0.1l0.1-0.2l0.1-0.2
		c0.1-0.2,0.1-0.4,0.1-0.7c0,0,0-0.1,0-0.1v-0.3h0V45.5z"/>
	<path class="st0" d="M81.2,36.9c1.8,1.8,4,2.7,6.6,2.7c2.7,0,4-0.8,4-2.4c0-0.8-0.7-1.4-2.2-1.8c-1.1-0.2-2.7-0.7-5-1.3
		c-1.9-0.5-3.4-1.4-4.7-2.7c-1.3-1.3-1.9-3.3-1.9-6c0-2.1,0.5-3.8,1.6-5.3c1.1-1.4,2.4-2.5,4.1-3.2c1.7-0.7,3.6-1,5.6-1
		c1.2,0,2.3,0.2,3.5,0.5c1.3,0.4,2.4,0.9,3.5,1.5c1.1,0.6,2.1,1.3,2.9,2.1l-5,5c-1.5-1.1-3-1.6-4.8-1.6c-2.1,0-3.1,0.6-3.1,1.7
		c0,1,0.8,1.8,2.3,2.2c1.7,0.5,3.4,0.9,5.1,1.3c1.9,0.5,3.4,1.3,4.7,2.6c1.3,1.3,1.9,3.3,1.9,6.1c0,2.1-0.5,3.8-1.6,5.3
		c-1.1,1.5-2.6,2.6-4.4,3.4c-1.8,0.8-3.7,1.2-5.7,1.2c-1.6,0-3.1-0.1-4.4-0.4c-1.3-0.2-2.6-0.7-3.7-1.2c-1.2-0.6-2.4-1.4-3.7-2.3
		L81.2,36.9z"/>
	<path class="st0" d="M118.5,24.1c-2.3,0.1-3.5,1.7-3.5,4.8V46H106V28.9c0-8.2,4.2-12.6,12.5-13h0.5c8.3,0.4,12.5,4.7,12.5,13V46
		h-9.1V28.9c0-3.1-1.2-4.7-3.5-4.8H118.5z"/>
	<path class="st0" d="M138,39c0.5-0.8,1.1-1.4,1.9-1.8c0.8-0.5,1.6-0.7,2.5-0.7c0.9,0,1.7,0.2,2.5,0.7c0.8,0.5,1.4,1.1,1.9,1.9
		c0.5,0.8,0.7,1.6,0.7,2.5c0,1.5-0.5,2.8-1.5,3.7c-1,1-2.2,1.5-3.6,1.5c-0.9,0-1.8-0.2-2.6-0.7c-0.8-0.5-1.4-1.1-1.9-1.9
		c-0.5-0.8-0.7-1.7-0.7-2.7C137.3,40.6,137.5,39.8,138,39z"/>
	<path class="st0" d="M153.3,46.1L163.9,31L154,17.1l9.9-0.1l5.3,8l5.6-8l9.8,0l-10.5,14l11,14.9L174.4,46l-5.5-8.4l-6,8.4
		L153.3,46.1z"/>
	<path class="st0" d="M203.4,38.7h0.5c2.3-0.1,3.5-1.7,3.5-4.8V17h9.1v16.9c0,8.2-4.2,12.5-12.5,13h-0.5c-8.3-0.5-12.5-4.8-12.5-13
		V17h9.1v16.9C200,37,201.1,38.6,203.4,38.7z"/>
</g>
<path d="M-1897.4-261.4h-6l2-7.8h3.9v-11.2l9,0.1v11.1h6l-2,7.8h-4v9.6c0,2.6,1.6,3.9,4.8,3.9c1,0,1.8-0.1,2.4-0.4l-2.6,9
	c-0.5,0.1-0.9,0.1-1.4,0.1c-2.7,0-4.9-0.4-6.7-1.3c-1.8-0.9-3.2-2.2-4.1-3.9c-0.9-1.7-1.4-4-1.4-6.7V-261.4z"/>
<path d="M-1856.4-240.7c-1.7,0.7-3.3,1.1-4.8,1.2c-8.9,0.9-13.4-3.3-13.4-12.8v-16.9h9.1v16.3c0,1.7,0.4,3,1.2,3.9
	c0.8,0.9,1.9,1.3,3.3,1.3c1.4,0,2.5-0.4,3.3-1.3c0.8-0.9,1.2-2.2,1.2-3.9v-16.3l9.1,0v32.4c0,3.5-1.2,6.5-3.7,9.1
	c-1.1,1.1-2.7,2.1-4.7,2.8c-1.8,0.6-3.6,1-5.4,1h-1.5c-4-0.1-7.3-1.3-9.7-3.7c-1.6-1.6-2.6-3.1-2.9-4.4l8.2-4.8
	c0.1,1.4,0.6,2.6,1.7,3.6c1,1,2.3,1.5,3.7,1.5c1.1,0,2.1-0.3,3.1-1c0.9-0.6,1.5-1.4,2-2.4l0-0.1l0.1-0.1l0.1-0.2l0.1-0.2
	c0.1-0.2,0.1-0.4,0.1-0.7c0,0,0-0.1,0-0.1v-0.3h0V-240.7z"/>
<path d="M-1837-249.2c1.8,1.8,4,2.7,6.6,2.7c2.7,0,4-0.8,4-2.4c0-0.8-0.7-1.4-2.2-1.8c-1.1-0.2-2.7-0.7-5-1.3
	c-1.9-0.5-3.4-1.4-4.7-2.7c-1.3-1.3-1.9-3.3-1.9-6c0-2.1,0.5-3.8,1.6-5.3c1.1-1.4,2.4-2.5,4.1-3.2c1.7-0.7,3.6-1,5.6-1
	c1.2,0,2.3,0.2,3.5,0.5c1.3,0.4,2.4,0.9,3.5,1.5c1.1,0.6,2.1,1.3,2.9,2.1l-5,5c-1.5-1.1-3-1.6-4.8-1.6c-2.1,0-3.1,0.6-3.1,1.7
	c0,1,0.8,1.8,2.3,2.2c1.7,0.5,3.4,0.9,5.1,1.3c1.9,0.5,3.4,1.3,4.7,2.6c1.3,1.3,1.9,3.3,1.9,6.1c0,2.1-0.5,3.8-1.6,5.3
	c-1.1,1.5-2.6,2.6-4.4,3.4c-1.8,0.8-3.7,1.2-5.7,1.2c-1.6,0-3.1-0.1-4.4-0.4c-1.3-0.2-2.6-0.7-3.7-1.2c-1.2-0.6-2.4-1.4-3.7-2.3
	L-1837-249.2z"/>
<path d="M-1799.7-262.1c-2.3,0.1-3.5,1.7-3.5,4.8v17.1h-9.1v-17.1c0-8.2,4.2-12.6,12.5-13h0.5c8.3,0.4,12.5,4.7,12.5,13v17.1h-9.1
	v-17.1c0-3.1-1.2-4.7-3.5-4.8H-1799.7z"/>
<path d="M-1780.2-247.1c0.5-0.8,1.1-1.4,1.9-1.8c0.8-0.5,1.6-0.7,2.5-0.7c0.9,0,1.7,0.2,2.5,0.7c0.8,0.5,1.4,1.1,1.9,1.9
	c0.5,0.8,0.7,1.6,0.7,2.5c0,1.5-0.5,2.8-1.5,3.7c-1,1-2.2,1.5-3.6,1.5c-0.9,0-1.8-0.2-2.6-0.7c-0.8-0.5-1.4-1.1-1.9-1.9
	c-0.5-0.8-0.7-1.7-0.7-2.7C-1780.9-245.5-1780.7-246.4-1780.2-247.1z"/>
<path d="M-1765-240.1l10.6-15.1l-9.9-13.9l9.9-0.1l5.3,8l5.6-8l9.8,0l-10.5,14l11,14.9l-10.8,0.1l-5.5-8.4l-6,8.4L-1765-240.1z"/>
<path d="M-1714.8-247.5h0.5c2.3-0.1,3.5-1.7,3.5-4.8v-16.9h9.1v16.9c0,8.2-4.2,12.5-12.5,13h-0.5c-8.3-0.5-12.5-4.8-12.5-13v-16.9
	h9.1v16.9C-1718.3-249.1-1717.1-247.5-1714.8-247.5z"/>
</svg>
